<svg width="28" height="28" viewBox="0 0 28 28" fill="none" xmlns="http://www.w3.org/2000/svg">
<path d="M13.9983 0C6.26851 0 8.07883e-06 6.293 8.07883e-06 14.056C-0.00315001 17.0022 0.919658 19.8749 2.63801 22.2681C4.35637 24.6613 6.78337 26.454 9.57601 27.3927C10.276 27.5222 10.5315 27.0882 10.5315 26.7155C10.5315 26.3813 10.5193 25.4975 10.5123 24.325C6.61851 25.1737 5.79601 22.4403 5.79601 22.4403C5.16076 20.8162 4.24201 20.384 4.24201 20.384C2.96976 19.5125 4.33651 19.53 4.33651 19.53C5.74176 19.6297 6.48026 20.979 6.48026 20.979C7.72976 23.1262 9.75801 22.5068 10.556 22.1462C10.682 21.238 11.0443 20.6185 11.445 20.2668C8.33701 19.9115 5.06801 18.7057 5.06801 13.321C5.06801 11.7863 5.61401 10.5315 6.51001 9.548C6.36476 9.19275 5.88526 7.763 6.64651 5.82925C6.64651 5.82925 7.82251 5.45125 10.4965 7.2695C11.6388 6.95732 12.8176 6.79843 14.0018 6.797C15.186 6.79935 16.3647 6.95883 17.507 7.27125C20.1793 5.453 21.3535 5.831 21.3535 5.831C22.1165 7.7665 21.637 9.1945 21.4935 9.54975C22.3913 10.5332 22.932 11.788 22.932 13.3228C22.932 18.7215 19.6595 19.9097 16.541 20.258C17.0433 20.692 17.4913 21.5495 17.4913 22.8602C17.4913 24.7397 17.4738 26.2552 17.4738 26.7155C17.4738 27.0917 17.7258 27.5293 18.4363 27.391C21.2262 26.45 23.6502 24.6566 25.3661 22.264C27.0821 19.8714 28.0034 17.0003 28 14.056C28 6.293 21.7315 0 13.9983 0Z" fill="white"/>
</svg>
