<svg width="288" height="69" viewBox="0 0 288 69" fill="none" xmlns="http://www.w3.org/2000/svg">
<circle cx="6" cy="35" r="6" fill="white"/>
<circle cx="28.5001" cy="21.5" r="10.5" fill="white"/>
<circle cx="22.5001" cy="48.5" r="7.5" fill="#222222"/>
<path d="M59.096 34.68H82.136V30.84H59.096V34.68ZM79.4 17.4V51H83.48V17.4H79.4ZM56.84 17.4V51H60.92V17.4H56.84ZM99.4565 51.48C101.825 51.48 103.873 51.016 105.601 50.088C107.361 49.128 108.817 47.72 109.969 45.864L106.849 43.896C106.049 45.24 105.073 46.248 103.921 46.92C102.769 47.56 101.441 47.88 99.9365 47.88C98.4325 47.88 97.1525 47.56 96.0965 46.92C95.0405 46.28 94.2405 45.352 93.6965 44.136C93.1525 42.92 92.8805 41.448 92.8805 39.72C92.9125 38.024 93.2005 36.6 93.7445 35.448C94.3205 34.264 95.1205 33.368 96.1445 32.76C97.2005 32.12 98.4645 31.8 99.9365 31.8C101.185 31.8 102.273 32.072 103.201 32.616C104.129 33.16 104.849 33.912 105.361 34.872C105.905 35.832 106.177 36.968 106.177 38.28C106.177 38.504 106.129 38.792 106.033 39.144C105.937 39.464 105.841 39.704 105.745 39.864L107.281 37.656H91.4405V40.92H110.305C110.305 40.856 110.305 40.712 110.305 40.488C110.337 40.232 110.353 39.992 110.353 39.768C110.353 37.432 109.937 35.416 109.105 33.72C108.273 32.024 107.073 30.728 105.505 29.832C103.969 28.904 102.113 28.44 99.9365 28.44C97.7605 28.44 95.8405 28.92 94.1765 29.88C92.5445 30.84 91.2645 32.184 90.3365 33.912C89.4405 35.64 88.9925 37.656 88.9925 39.96C88.9925 42.232 89.4245 44.232 90.2885 45.96C91.1845 47.688 92.4165 49.048 93.9845 50.04C95.5845 51 97.4085 51.48 99.4565 51.48ZM115.616 13.56V51H119.456V13.56H115.616ZM130.278 61.56V28.92H126.438V61.56H130.278ZM148.758 39.96C148.758 37.56 148.262 35.512 147.27 33.816C146.278 32.088 144.95 30.76 143.286 29.832C141.654 28.904 139.83 28.44 137.814 28.44C135.99 28.44 134.374 28.904 132.966 29.832C131.59 30.76 130.502 32.088 129.702 33.816C128.934 35.512 128.55 37.56 128.55 39.96C128.55 42.328 128.934 44.376 129.702 46.104C130.502 47.832 131.59 49.16 132.966 50.088C134.374 51.016 135.99 51.48 137.814 51.48C139.83 51.48 141.654 51.016 143.286 50.088C144.95 49.16 146.278 47.832 147.27 46.104C148.262 44.376 148.758 42.328 148.758 39.96ZM144.87 39.96C144.87 41.656 144.518 43.096 143.814 44.28C143.142 45.464 142.23 46.36 141.078 46.968C139.958 47.576 138.71 47.88 137.334 47.88C136.214 47.88 135.11 47.576 134.022 46.968C132.934 46.36 132.038 45.464 131.334 44.28C130.63 43.096 130.278 41.656 130.278 39.96C130.278 38.264 130.63 36.824 131.334 35.64C132.038 34.456 132.934 33.56 134.022 32.952C135.11 32.344 136.214 32.04 137.334 32.04C138.71 32.04 139.958 32.344 141.078 32.952C142.23 33.56 143.142 34.456 143.814 35.64C144.518 36.824 144.87 38.264 144.87 39.96ZM157.701 39.192L152.037 43.272C152.805 44.872 153.877 46.344 155.253 47.688C156.629 49.032 158.245 50.104 160.101 50.904C161.989 51.672 164.021 52.056 166.197 52.056C167.765 52.056 169.285 51.816 170.757 51.336C172.261 50.888 173.589 50.216 174.741 49.32C175.925 48.424 176.853 47.32 177.525 46.008C178.229 44.664 178.581 43.144 178.581 41.448C178.581 40.04 178.357 38.792 177.909 37.704C177.461 36.616 176.837 35.656 176.037 34.824C175.269 33.992 174.373 33.288 173.349 32.712C172.325 32.104 171.221 31.576 170.037 31.128C168.469 30.584 167.125 30.072 166.005 29.592C164.917 29.112 164.069 28.584 163.461 28.008C162.885 27.432 162.597 26.76 162.597 25.992C162.597 25.256 162.901 24.648 163.509 24.168C164.117 23.656 164.997 23.4 166.149 23.4C167.013 23.4 167.813 23.576 168.549 23.928C169.317 24.248 170.005 24.712 170.613 25.32C171.253 25.896 171.813 26.584 172.293 27.384L178.485 23.928C177.909 22.776 177.077 21.64 175.989 20.52C174.901 19.4 173.525 18.472 171.861 17.736C170.229 17 168.293 16.632 166.053 16.632C163.877 16.632 161.893 17.016 160.101 17.784C158.341 18.52 156.933 19.608 155.877 21.048C154.853 22.488 154.341 24.2 154.341 26.184C154.341 27.848 154.645 29.272 155.253 30.456C155.861 31.608 156.629 32.6 157.557 33.432C158.485 34.232 159.461 34.888 160.485 35.4C161.541 35.912 162.469 36.312 163.269 36.6C164.901 37.208 166.213 37.752 167.205 38.232C168.197 38.712 168.917 39.224 169.365 39.768C169.813 40.28 170.037 40.968 170.037 41.832C170.037 42.856 169.653 43.672 168.885 44.28C168.117 44.856 167.141 45.144 165.957 45.144C164.837 45.144 163.765 44.904 162.741 44.424C161.749 43.944 160.821 43.256 159.957 42.36C159.125 41.464 158.373 40.408 157.701 39.192ZM190.485 61.56V28.92H183.237V61.56H190.485ZM208.533 39.96C208.533 37.368 208.021 35.208 206.997 33.48C206.005 31.72 204.709 30.392 203.109 29.496C201.541 28.6 199.845 28.152 198.021 28.152C196.101 28.152 194.437 28.648 193.029 29.64C191.653 30.6 190.597 31.96 189.861 33.72C189.125 35.48 188.757 37.56 188.757 39.96C188.757 42.328 189.125 44.408 189.861 46.2C190.597 47.96 191.653 49.336 193.029 50.328C194.437 51.288 196.101 51.768 198.021 51.768C199.845 51.768 201.541 51.32 203.109 50.424C204.709 49.528 206.005 48.2 206.997 46.44C208.021 44.68 208.533 42.52 208.533 39.96ZM200.901 39.96C200.901 41.112 200.661 42.088 200.181 42.888C199.701 43.688 199.061 44.296 198.261 44.712C197.461 45.128 196.581 45.336 195.621 45.336C194.789 45.336 193.973 45.144 193.173 44.76C192.405 44.344 191.765 43.736 191.253 42.936C190.741 42.136 190.485 41.144 190.485 39.96C190.485 38.776 190.741 37.784 191.253 36.984C191.765 36.184 192.405 35.592 193.173 35.208C193.973 34.792 194.789 34.584 195.621 34.584C196.581 34.584 197.461 34.792 198.261 35.208C199.061 35.624 199.701 36.232 200.181 37.032C200.661 37.832 200.901 38.808 200.901 39.96ZM218.526 44.088C218.526 43.544 218.654 43.096 218.91 42.744C219.166 42.36 219.55 42.072 220.062 41.88C220.574 41.688 221.262 41.592 222.126 41.592C223.246 41.592 224.302 41.752 225.294 42.072C226.318 42.36 227.214 42.792 227.982 43.368V40.152C227.598 39.736 227.022 39.336 226.254 38.952C225.486 38.568 224.558 38.248 223.47 37.992C222.414 37.736 221.214 37.608 219.87 37.608C217.118 37.608 214.99 38.232 213.486 39.48C211.982 40.696 211.23 42.36 211.23 44.472C211.23 45.976 211.582 47.256 212.286 48.312C213.022 49.368 213.982 50.168 215.166 50.712C216.382 51.224 217.694 51.48 219.102 51.48C220.51 51.48 221.822 51.24 223.038 50.76C224.254 50.248 225.246 49.512 226.014 48.552C226.782 47.56 227.166 46.36 227.166 44.952L226.398 42.072C226.398 43.096 226.174 43.96 225.726 44.664C225.278 45.368 224.702 45.896 223.998 46.248C223.294 46.6 222.526 46.776 221.694 46.776C221.118 46.776 220.59 46.68 220.11 46.488C219.63 46.264 219.246 45.96 218.958 45.576C218.67 45.16 218.526 44.664 218.526 44.088ZM215.31 35.688C215.63 35.496 216.142 35.256 216.846 34.968C217.55 34.648 218.366 34.376 219.294 34.152C220.254 33.928 221.23 33.816 222.222 33.816C222.894 33.816 223.486 33.88 223.998 34.008C224.542 34.136 224.99 34.344 225.342 34.632C225.694 34.92 225.95 35.272 226.11 35.688C226.302 36.072 226.398 36.536 226.398 37.08V51H233.358V35.448C233.358 33.912 232.91 32.616 232.014 31.56C231.118 30.504 229.902 29.704 228.366 29.16C226.83 28.584 225.086 28.296 223.134 28.296C221.054 28.296 219.134 28.568 217.374 29.112C215.614 29.656 214.11 30.232 212.862 30.84L215.31 35.688ZM244.881 39.96C244.881 38.872 245.137 37.896 245.649 37.032C246.161 36.168 246.865 35.48 247.761 34.968C248.689 34.456 249.681 34.2 250.737 34.2C251.537 34.2 252.353 34.328 253.185 34.584C254.017 34.84 254.785 35.208 255.489 35.688C256.225 36.168 256.817 36.76 257.265 37.464V30.36C256.497 29.816 255.537 29.368 254.385 29.016C253.233 28.632 251.825 28.44 250.161 28.44C247.729 28.44 245.537 28.92 243.585 29.88C241.665 30.84 240.145 32.184 239.025 33.912C237.937 35.608 237.393 37.624 237.393 39.96C237.393 42.264 237.937 44.28 239.025 46.008C240.145 47.736 241.665 49.08 243.585 50.04C245.537 51 247.729 51.48 250.161 51.48C251.825 51.48 253.233 51.304 254.385 50.952C255.537 50.568 256.497 50.072 257.265 49.464V42.408C256.817 43.112 256.241 43.704 255.537 44.184C254.865 44.664 254.113 45.048 253.281 45.336C252.481 45.592 251.633 45.72 250.737 45.72C249.681 45.72 248.689 45.48 247.761 45C246.865 44.52 246.161 43.864 245.649 43.032C245.137 42.168 244.881 41.144 244.881 39.96ZM273.736 51.48C276.552 51.48 278.936 50.936 280.888 49.848C282.872 48.76 284.44 47.128 285.592 44.952L279.112 43.368C278.568 44.328 277.832 45.048 276.904 45.528C276.008 46.008 274.92 46.248 273.64 46.248C272.52 46.248 271.576 46.008 270.808 45.528C270.04 45.016 269.464 44.28 269.08 43.32C268.696 42.36 268.504 41.208 268.504 39.864C268.536 38.392 268.728 37.176 269.08 36.216C269.464 35.224 270.024 34.488 270.76 34.008C271.496 33.528 272.408 33.288 273.496 33.288C274.36 33.288 275.112 33.48 275.752 33.864C276.392 34.248 276.888 34.792 277.24 35.496C277.592 36.2 277.768 37.032 277.768 37.992C277.768 38.216 277.704 38.504 277.576 38.856C277.48 39.176 277.352 39.448 277.192 39.672L278.92 37.464H265.288V41.496H285.448C285.512 41.272 285.544 41 285.544 40.68C285.544 40.328 285.544 39.976 285.544 39.624C285.544 37.256 285.08 35.24 284.152 33.576C283.224 31.912 281.88 30.648 280.12 29.784C278.36 28.888 276.2 28.44 273.64 28.44C271.08 28.44 268.856 28.904 266.968 29.832C265.112 30.76 263.688 32.088 262.696 33.816C261.704 35.544 261.208 37.592 261.208 39.96C261.208 42.296 261.72 44.328 262.744 46.056C263.768 47.784 265.208 49.128 267.064 50.088C268.952 51.016 271.176 51.48 273.736 51.48Z" fill="white"/>
<path d="M153.5 22.5C202 45 240 49.5 283.5 30.5" stroke="#FF6969" stroke-width="2.7"/>
</svg>
