<svg width="189" height="46" viewBox="0 0 189 46" fill="none" xmlns="http://www.w3.org/2000/svg">
<path d="M36.064 23.12H51.424V20.56H36.064V23.12ZM49.6 11.6V34H52.32V11.6H49.6ZM34.56 11.6V34H37.28V11.6H34.56ZM62.971 34.32C64.5497 34.32 65.915 34.0107 67.067 33.392C68.2403 32.752 69.211 31.8133 69.979 30.576L67.899 29.264C67.3657 30.16 66.715 30.832 65.947 31.28C65.179 31.7067 64.2937 31.92 63.291 31.92C62.2883 31.92 61.435 31.7067 60.731 31.28C60.027 30.8533 59.4937 30.2347 59.131 29.424C58.7683 28.6133 58.587 27.632 58.587 26.48C58.6083 25.3493 58.8003 24.4 59.163 23.632C59.547 22.8427 60.0803 22.2453 60.763 21.84C61.467 21.4133 62.3097 21.2 63.291 21.2C64.123 21.2 64.8483 21.3813 65.467 21.744C66.0857 22.1067 66.5657 22.608 66.907 23.248C67.2697 23.888 67.451 24.6453 67.451 25.52C67.451 25.6693 67.419 25.8613 67.355 26.096C67.291 26.3093 67.227 26.4693 67.163 26.576L68.187 25.104H57.627V27.28H70.203C70.203 27.2373 70.203 27.1413 70.203 26.992C70.2243 26.8213 70.235 26.6613 70.235 26.512C70.235 24.9547 69.9577 23.6107 69.403 22.48C68.8483 21.3493 68.0483 20.4853 67.003 19.888C65.979 19.2693 64.7417 18.96 63.291 18.96C61.8403 18.96 60.5603 19.28 59.451 19.92C58.363 20.56 57.5097 21.456 56.891 22.608C56.2937 23.76 55.995 25.104 55.995 26.64C55.995 28.1547 56.283 29.488 56.859 30.64C57.4563 31.792 58.2777 32.6987 59.323 33.36C60.3897 34 61.6057 34.32 62.971 34.32ZM73.7438 9.04V34H76.3038V9.04H73.7438ZM83.5188 41.04V19.28H80.9588V41.04H83.5188ZM95.8388 26.64C95.8388 25.04 95.5081 23.6747 94.8468 22.544C94.1854 21.392 93.3001 20.5067 92.1908 19.888C91.1028 19.2693 89.8868 18.96 88.5428 18.96C87.3268 18.96 86.2494 19.2693 85.3108 19.888C84.3934 20.5067 83.6681 21.392 83.1348 22.544C82.6228 23.6747 82.3668 25.04 82.3668 26.64C82.3668 28.2187 82.6228 29.584 83.1348 30.736C83.6681 31.888 84.3934 32.7733 85.3108 33.392C86.2494 34.0107 87.3268 34.32 88.5428 34.32C89.8868 34.32 91.1028 34.0107 92.1908 33.392C93.3001 32.7733 94.1854 31.888 94.8468 30.736C95.5081 29.584 95.8388 28.2187 95.8388 26.64ZM93.2468 26.64C93.2468 27.7707 93.0121 28.7307 92.5428 29.52C92.0948 30.3093 91.4868 30.9067 90.7188 31.312C89.9721 31.7173 89.1401 31.92 88.2228 31.92C87.4761 31.92 86.7401 31.7173 86.0148 31.312C85.2894 30.9067 84.6921 30.3093 84.2228 29.52C83.7534 28.7307 83.5188 27.7707 83.5188 26.64C83.5188 25.5093 83.7534 24.5493 84.2228 23.76C84.6921 22.9707 85.2894 22.3733 86.0148 21.968C86.7401 21.5627 87.4761 21.36 88.2228 21.36C89.1401 21.36 89.9721 21.5627 90.7188 21.968C91.4868 22.3733 92.0948 22.9707 92.5428 23.76C93.0121 24.5493 93.2468 25.5093 93.2468 26.64Z" fill="#393939"/>
<path d="M101.801 26.128L98.0247 28.848C98.5368 29.9147 99.2514 30.896 100.169 31.792C101.086 32.688 102.163 33.4027 103.401 33.936C104.659 34.448 106.014 34.704 107.465 34.704C108.51 34.704 109.523 34.544 110.505 34.224C111.507 33.9253 112.393 33.4773 113.161 32.88C113.95 32.2827 114.569 31.5467 115.017 30.672C115.486 29.776 115.721 28.7627 115.721 27.632C115.721 26.6933 115.571 25.8613 115.273 25.136C114.974 24.4107 114.558 23.7707 114.025 23.216C113.513 22.6613 112.915 22.192 112.233 21.808C111.55 21.4027 110.814 21.0507 110.025 20.752C108.979 20.3893 108.083 20.048 107.337 19.728C106.611 19.408 106.046 19.056 105.641 18.672C105.257 18.288 105.065 17.84 105.065 17.328C105.065 16.8373 105.267 16.432 105.673 16.112C106.078 15.7707 106.665 15.6 107.433 15.6C108.009 15.6 108.542 15.7173 109.033 15.952C109.545 16.1653 110.003 16.4747 110.409 16.88C110.835 17.264 111.209 17.7227 111.529 18.256L115.657 15.952C115.273 15.184 114.718 14.4267 113.993 13.68C113.267 12.9333 112.35 12.3147 111.241 11.824C110.153 11.3333 108.862 11.088 107.369 11.088C105.918 11.088 104.595 11.344 103.401 11.856C102.227 12.3467 101.289 13.072 100.585 14.032C99.9021 14.992 99.5608 16.1333 99.5608 17.456C99.5608 18.5653 99.7634 19.5147 100.169 20.304C100.574 21.072 101.086 21.7333 101.705 22.288C102.323 22.8213 102.974 23.2587 103.657 23.6C104.361 23.9413 104.979 24.208 105.513 24.4C106.601 24.8053 107.475 25.168 108.137 25.488C108.798 25.808 109.278 26.1493 109.577 26.512C109.875 26.8533 110.025 27.312 110.025 27.888C110.025 28.5707 109.769 29.1147 109.257 29.52C108.745 29.904 108.094 30.096 107.305 30.096C106.558 30.096 105.843 29.936 105.161 29.616C104.499 29.296 103.881 28.8373 103.305 28.24C102.75 27.6427 102.249 26.9387 101.801 26.128ZM123.657 41.04V19.28H118.825V41.04H123.657ZM135.689 26.64C135.689 24.912 135.347 23.472 134.665 22.32C134.003 21.1467 133.139 20.2613 132.073 19.664C131.027 19.0667 129.897 18.768 128.681 18.768C127.401 18.768 126.291 19.0987 125.353 19.76C124.435 20.4 123.731 21.3067 123.241 22.48C122.75 23.6533 122.505 25.04 122.505 26.64C122.505 28.2187 122.75 29.6053 123.241 30.8C123.731 31.9733 124.435 32.8907 125.353 33.552C126.291 34.192 127.401 34.512 128.681 34.512C129.897 34.512 131.027 34.2133 132.073 33.616C133.139 33.0187 134.003 32.1333 134.665 30.96C135.347 29.7867 135.689 28.3467 135.689 26.64ZM130.601 26.64C130.601 27.408 130.441 28.0587 130.121 28.592C129.801 29.1253 129.374 29.5307 128.841 29.808C128.307 30.0853 127.721 30.224 127.081 30.224C126.526 30.224 125.982 30.096 125.449 29.84C124.937 29.5627 124.51 29.1573 124.169 28.624C123.827 28.0907 123.657 27.4293 123.657 26.64C123.657 25.8507 123.827 25.1893 124.169 24.656C124.51 24.1227 124.937 23.728 125.449 23.472C125.982 23.1947 126.526 23.056 127.081 23.056C127.721 23.056 128.307 23.1947 128.841 23.472C129.374 23.7493 129.801 24.1547 130.121 24.688C130.441 25.2213 130.601 25.872 130.601 26.64ZM142.351 29.392C142.351 29.0293 142.436 28.7307 142.607 28.496C142.777 28.24 143.033 28.048 143.375 27.92C143.716 27.792 144.175 27.728 144.751 27.728C145.497 27.728 146.201 27.8347 146.863 28.048C147.545 28.24 148.143 28.528 148.655 28.912V26.768C148.399 26.4907 148.015 26.224 147.503 25.968C146.991 25.712 146.372 25.4987 145.647 25.328C144.943 25.1573 144.143 25.072 143.247 25.072C141.412 25.072 139.993 25.488 138.991 26.32C137.988 27.1307 137.487 28.24 137.487 29.648C137.487 30.6507 137.721 31.504 138.191 32.208C138.681 32.912 139.321 33.4453 140.111 33.808C140.921 34.1493 141.796 34.32 142.735 34.32C143.673 34.32 144.548 34.16 145.359 33.84C146.169 33.4987 146.831 33.008 147.343 32.368C147.855 31.7067 148.111 30.9067 148.111 29.968L147.599 28.048C147.599 28.7307 147.449 29.3067 147.151 29.776C146.852 30.2453 146.468 30.5973 145.999 30.832C145.529 31.0667 145.017 31.184 144.463 31.184C144.079 31.184 143.727 31.12 143.407 30.992C143.087 30.8427 142.831 30.64 142.639 30.384C142.447 30.1067 142.351 29.776 142.351 29.392ZM140.207 23.792C140.42 23.664 140.761 23.504 141.231 23.312C141.7 23.0987 142.244 22.9173 142.863 22.768C143.503 22.6187 144.153 22.544 144.815 22.544C145.263 22.544 145.657 22.5867 145.999 22.672C146.361 22.7573 146.66 22.896 146.895 23.088C147.129 23.28 147.3 23.5147 147.407 23.792C147.535 24.048 147.599 24.3573 147.599 24.72V34H152.239V23.632C152.239 22.608 151.94 21.744 151.343 21.04C150.745 20.336 149.935 19.8027 148.911 19.44C147.887 19.056 146.724 18.864 145.423 18.864C144.036 18.864 142.756 19.0453 141.583 19.408C140.409 19.7707 139.407 20.1547 138.575 20.56L140.207 23.792ZM159.921 26.64C159.921 25.9147 160.091 25.264 160.433 24.688C160.774 24.112 161.243 23.6533 161.841 23.312C162.459 22.9707 163.121 22.8 163.825 22.8C164.358 22.8 164.902 22.8853 165.457 23.056C166.011 23.2267 166.523 23.472 166.993 23.792C167.483 24.112 167.878 24.5067 168.177 24.976V20.24C167.665 19.8773 167.025 19.5787 166.257 19.344C165.489 19.088 164.55 18.96 163.441 18.96C161.819 18.96 160.358 19.28 159.057 19.92C157.777 20.56 156.763 21.456 156.017 22.608C155.291 23.7387 154.929 25.0827 154.929 26.64C154.929 28.176 155.291 29.52 156.017 30.672C156.763 31.824 157.777 32.72 159.057 33.36C160.358 34 161.819 34.32 163.441 34.32C164.55 34.32 165.489 34.2027 166.257 33.968C167.025 33.712 167.665 33.3813 168.177 32.976V28.272C167.878 28.7413 167.494 29.136 167.025 29.456C166.577 29.776 166.075 30.032 165.521 30.224C164.987 30.3947 164.422 30.48 163.825 30.48C163.121 30.48 162.459 30.32 161.841 30C161.243 29.68 160.774 29.2427 160.433 28.688C160.091 28.112 159.921 27.4293 159.921 26.64ZM179.157 34.32C181.035 34.32 182.624 33.9573 183.925 33.232C185.248 32.5067 186.293 31.4187 187.061 29.968L182.741 28.912C182.379 29.552 181.888 30.032 181.269 30.352C180.672 30.672 179.947 30.832 179.093 30.832C178.347 30.832 177.717 30.672 177.205 30.352C176.693 30.0107 176.309 29.52 176.053 28.88C175.797 28.24 175.669 27.472 175.669 26.576C175.691 25.5947 175.819 24.784 176.053 24.144C176.309 23.4827 176.683 22.992 177.173 22.672C177.664 22.352 178.272 22.192 178.997 22.192C179.573 22.192 180.075 22.32 180.501 22.576C180.928 22.832 181.259 23.1947 181.493 23.664C181.728 24.1333 181.845 24.688 181.845 25.328C181.845 25.4773 181.803 25.6693 181.717 25.904C181.653 26.1173 181.568 26.2987 181.461 26.448L182.613 24.976H173.525V27.664H186.965C187.008 27.5147 187.029 27.3333 187.029 27.12C187.029 26.8853 187.029 26.6507 187.029 26.416C187.029 24.8373 186.72 23.4933 186.101 22.384C185.483 21.2747 184.587 20.432 183.413 19.856C182.24 19.2587 180.8 18.96 179.093 18.96C177.387 18.96 175.904 19.2693 174.645 19.888C173.408 20.5067 172.459 21.392 171.797 22.544C171.136 23.696 170.805 25.0613 170.805 26.64C170.805 28.1973 171.147 29.552 171.829 30.704C172.512 31.856 173.472 32.752 174.709 33.392C175.968 34.0107 177.451 34.32 179.157 34.32Z" fill="#FF3939"/>
<path d="M99 14.7896C130.5 34.2896 160 31.2896 184.5 19.7896" stroke="white"/>
<circle cx="3.53846" cy="21.6119" r="3.28846" fill="white" stroke="#DD0000" stroke-width="0.5"/>
<circle cx="16.8078" cy="13.6504" r="6.54231" fill="white" stroke="#DD0000" stroke-width="0.7"/>
<circle cx="13.2693" cy="29.5735" r="4.42308" fill="#DD0000"/>
</svg>
