<svg width="391" height="116" viewBox="0 0 391 116" fill="none" xmlns="http://www.w3.org/2000/svg">
<path d="M10.16 58.8H48.56V52.4H10.16V58.8ZM44 30V86H50.8V30H44ZM6.4 30V86H13.2V30H6.4ZM77.4275 86.8C81.3742 86.8 84.7875 86.0267 87.6675 84.48C90.6008 82.88 93.0275 80.5333 94.9475 77.44L89.7475 74.16C88.4142 76.4 86.7875 78.08 84.8675 79.2C82.9475 80.2667 80.7342 80.8 78.2275 80.8C75.7208 80.8 73.5875 80.2667 71.8275 79.2C70.0675 78.1333 68.7342 76.5867 67.8275 74.56C66.9208 72.5333 66.4675 70.08 66.4675 67.2C66.5208 64.3733 67.0008 62 67.9075 60.08C68.8675 58.1067 70.2008 56.6133 71.9075 55.6C73.6675 54.5333 75.7742 54 78.2275 54C80.3075 54 82.1208 54.4533 83.6675 55.36C85.2142 56.2667 86.4142 57.52 87.2675 59.12C88.1742 60.72 88.6275 62.6133 88.6275 64.8C88.6275 65.1733 88.5475 65.6533 88.3875 66.24C88.2275 66.7733 88.0675 67.1733 87.9075 67.44L90.4675 63.76H64.0675V69.2H95.5075C95.5075 69.0933 95.5075 68.8533 95.5075 68.48C95.5608 68.0533 95.5875 67.6533 95.5875 67.28C95.5875 63.3867 94.8942 60.0267 93.5075 57.2C92.1208 54.3733 90.1208 52.2133 87.5075 50.72C84.9475 49.1733 81.8542 48.4 78.2275 48.4C74.6008 48.4 71.4008 49.2 68.6275 50.8C65.9075 52.4 63.7742 54.64 62.2275 57.52C60.7342 60.4 59.9875 63.76 59.9875 67.6C59.9875 71.3867 60.7075 74.72 62.1475 77.6C63.6408 80.48 65.6942 82.7467 68.3075 84.4C70.9742 86 74.0142 86.8 77.4275 86.8ZM104.359 23.6V86H110.759V23.6H104.359ZM128.797 103.6V49.2H122.397V103.6H128.797ZM159.597 67.6C159.597 63.6 158.77 60.1867 157.117 57.36C155.464 54.48 153.25 52.2667 150.477 50.72C147.757 49.1733 144.717 48.4 141.357 48.4C138.317 48.4 135.624 49.1733 133.277 50.72C130.984 52.2667 129.17 54.48 127.837 57.36C126.557 60.1867 125.917 63.6 125.917 67.6C125.917 71.5467 126.557 74.96 127.837 77.84C129.17 80.72 130.984 82.9333 133.277 84.48C135.624 86.0267 138.317 86.8 141.357 86.8C144.717 86.8 147.757 86.0267 150.477 84.48C153.25 82.9333 155.464 80.72 157.117 77.84C158.77 74.96 159.597 71.5467 159.597 67.6ZM153.117 67.6C153.117 70.4267 152.53 72.8267 151.357 74.8C150.237 76.7733 148.717 78.2667 146.797 79.28C144.93 80.2933 142.85 80.8 140.557 80.8C138.69 80.8 136.85 80.2933 135.037 79.28C133.224 78.2667 131.73 76.7733 130.557 74.8C129.384 72.8267 128.797 70.4267 128.797 67.6C128.797 64.7733 129.384 62.3733 130.557 60.4C131.73 58.4267 133.224 56.9333 135.037 55.92C136.85 54.9067 138.69 54.4 140.557 54.4C142.85 54.4 144.93 54.9067 146.797 55.92C148.717 56.9333 150.237 58.4267 151.357 60.4C152.53 62.3733 153.117 64.7733 153.117 67.6ZM174.502 66.32L165.062 73.12C166.342 75.7867 168.129 78.24 170.422 80.48C172.715 82.72 175.409 84.5067 178.502 85.84C181.649 87.12 185.035 87.76 188.662 87.76C191.275 87.76 193.809 87.36 196.262 86.56C198.769 85.8133 200.982 84.6933 202.902 83.2C204.875 81.7067 206.422 79.8667 207.542 77.68C208.715 75.44 209.302 72.9067 209.302 70.08C209.302 67.7333 208.929 65.6533 208.182 63.84C207.435 62.0267 206.395 60.4267 205.062 59.04C203.782 57.6533 202.289 56.48 200.582 55.52C198.875 54.5067 197.035 53.6267 195.062 52.88C192.449 51.9733 190.209 51.12 188.342 50.32C186.529 49.52 185.115 48.64 184.102 47.68C183.142 46.72 182.662 45.6 182.662 44.32C182.662 43.0933 183.169 42.08 184.182 41.28C185.195 40.4267 186.662 40 188.582 40C190.022 40 191.355 40.2933 192.582 40.88C193.862 41.4133 195.009 42.1867 196.022 43.2C197.089 44.16 198.022 45.3067 198.822 46.64L209.142 40.88C208.182 38.96 206.795 37.0667 204.982 35.2C203.169 33.3333 200.875 31.7867 198.102 30.56C195.382 29.3333 192.155 28.72 188.422 28.72C184.795 28.72 181.489 29.36 178.502 30.64C175.569 31.8667 173.222 33.68 171.462 36.08C169.755 38.48 168.902 41.3333 168.902 44.64C168.902 47.4133 169.409 49.7867 170.422 51.76C171.435 53.68 172.715 55.3333 174.262 56.72C175.809 58.0533 177.435 59.1467 179.142 60C180.902 60.8533 182.449 61.52 183.782 62C186.502 63.0133 188.689 63.92 190.342 64.72C191.995 65.52 193.195 66.3733 193.942 67.28C194.689 68.1333 195.062 69.28 195.062 70.72C195.062 72.4267 194.422 73.7867 193.142 74.8C191.862 75.76 190.235 76.24 188.262 76.24C186.395 76.24 184.609 75.84 182.902 75.04C181.249 74.24 179.702 73.0933 178.262 71.6C176.875 70.1067 175.622 68.3467 174.502 66.32ZM229.142 103.6V49.2H217.062V103.6H229.142ZM259.222 67.6C259.222 63.28 258.369 59.68 256.662 56.8C255.009 53.8667 252.849 51.6533 250.182 50.16C247.569 48.6667 244.742 47.92 241.702 47.92C238.502 47.92 235.729 48.7467 233.382 50.4C231.089 52 229.329 54.2667 228.102 57.2C226.875 60.1333 226.262 63.6 226.262 67.6C226.262 71.5467 226.875 75.0133 228.102 78C229.329 80.9333 231.089 83.2267 233.382 84.88C235.729 86.48 238.502 87.28 241.702 87.28C244.742 87.28 247.569 86.5333 250.182 85.04C252.849 83.5467 255.009 81.3333 256.662 78.4C258.369 75.4667 259.222 71.8667 259.222 67.6ZM246.502 67.6C246.502 69.52 246.102 71.1467 245.302 72.48C244.502 73.8133 243.435 74.8267 242.102 75.52C240.769 76.2133 239.302 76.56 237.702 76.56C236.315 76.56 234.955 76.24 233.622 75.6C232.342 74.9067 231.275 73.8933 230.422 72.56C229.569 71.2267 229.142 69.5733 229.142 67.6C229.142 65.6267 229.569 63.9733 230.422 62.64C231.275 61.3067 232.342 60.32 233.622 59.68C234.955 58.9867 236.315 58.64 237.702 58.64C239.302 58.64 240.769 58.9867 242.102 59.68C243.435 60.3733 244.502 61.3867 245.302 62.72C246.102 64.0533 246.502 65.68 246.502 67.6ZM275.877 74.48C275.877 73.5733 276.09 72.8267 276.517 72.24C276.944 71.6 277.584 71.12 278.437 70.8C279.29 70.48 280.437 70.32 281.877 70.32C283.744 70.32 285.504 70.5867 287.157 71.12C288.864 71.6 290.357 72.32 291.637 73.28V67.92C290.997 67.2267 290.037 66.56 288.757 65.92C287.477 65.28 285.93 64.7467 284.117 64.32C282.357 63.8933 280.357 63.68 278.117 63.68C273.53 63.68 269.984 64.72 267.477 66.8C264.97 68.8267 263.717 71.6 263.717 75.12C263.717 77.6267 264.304 79.76 265.477 81.52C266.704 83.28 268.304 84.6133 270.277 85.52C272.304 86.3733 274.49 86.8 276.837 86.8C279.184 86.8 281.37 86.4 283.397 85.6C285.424 84.7467 287.077 83.52 288.357 81.92C289.637 80.2667 290.277 78.2667 290.277 75.92L288.997 71.12C288.997 72.8267 288.624 74.2667 287.877 75.44C287.13 76.6133 286.17 77.4933 284.997 78.08C283.824 78.6667 282.544 78.96 281.157 78.96C280.197 78.96 279.317 78.8 278.517 78.48C277.717 78.1067 277.077 77.6 276.597 76.96C276.117 76.2667 275.877 75.44 275.877 74.48ZM270.517 60.48C271.05 60.16 271.904 59.76 273.077 59.28C274.25 58.7467 275.61 58.2933 277.157 57.92C278.757 57.5467 280.384 57.36 282.037 57.36C283.157 57.36 284.144 57.4667 284.997 57.68C285.904 57.8933 286.65 58.24 287.237 58.72C287.824 59.2 288.25 59.7867 288.517 60.48C288.837 61.12 288.997 61.8933 288.997 62.8V86H300.597V60.08C300.597 57.52 299.85 55.36 298.357 53.6C296.864 51.84 294.837 50.5067 292.277 49.6C289.717 48.64 286.81 48.16 283.557 48.16C280.09 48.16 276.89 48.6133 273.957 49.52C271.024 50.4267 268.517 51.3867 266.437 52.4L270.517 60.48ZM319.802 67.6C319.802 65.7867 320.229 64.16 321.082 62.72C321.935 61.28 323.109 60.1333 324.602 59.28C326.149 58.4267 327.802 58 329.562 58C330.895 58 332.255 58.2133 333.642 58.64C335.029 59.0667 336.309 59.68 337.482 60.48C338.709 61.28 339.695 62.2667 340.442 63.44V51.6C339.162 50.6933 337.562 49.9467 335.642 49.36C333.722 48.72 331.375 48.4 328.602 48.4C324.549 48.4 320.895 49.2 317.642 50.8C314.442 52.4 311.909 54.64 310.042 57.52C308.229 60.3467 307.322 63.7067 307.322 67.6C307.322 71.44 308.229 74.8 310.042 77.68C311.909 80.56 314.442 82.8 317.642 84.4C320.895 86 324.549 86.8 328.602 86.8C331.375 86.8 333.722 86.5067 335.642 85.92C337.562 85.28 339.162 84.4533 340.442 83.44V71.68C339.695 72.8533 338.735 73.84 337.562 74.64C336.442 75.44 335.189 76.08 333.802 76.56C332.469 76.9867 331.055 77.2 329.562 77.2C327.802 77.2 326.149 76.8 324.602 76C323.109 75.2 321.935 74.1067 321.082 72.72C320.229 71.28 319.802 69.5733 319.802 67.6ZM367.893 86.8C372.586 86.8 376.56 85.8933 379.813 84.08C383.12 82.2667 385.733 79.5467 387.653 75.92L376.853 73.28C375.946 74.88 374.72 76.08 373.173 76.88C371.68 77.68 369.866 78.08 367.733 78.08C365.866 78.08 364.293 77.68 363.013 76.88C361.733 76.0267 360.773 74.8 360.133 73.2C359.493 71.6 359.173 69.68 359.173 67.44C359.226 64.9867 359.546 62.96 360.133 61.36C360.773 59.7067 361.706 58.48 362.933 57.68C364.16 56.88 365.68 56.48 367.493 56.48C368.933 56.48 370.186 56.8 371.253 57.44C372.32 58.08 373.146 58.9867 373.733 60.16C374.32 61.3333 374.613 62.72 374.613 64.32C374.613 64.6933 374.506 65.1733 374.293 65.76C374.133 66.2933 373.92 66.7467 373.653 67.12L376.533 63.44H353.813V70.16H387.413C387.52 69.7867 387.573 69.3333 387.573 68.8C387.573 68.2133 387.573 67.6267 387.573 67.04C387.573 63.0933 386.8 59.7333 385.253 56.96C383.706 54.1867 381.466 52.08 378.533 50.64C375.6 49.1467 372 48.4 367.733 48.4C363.466 48.4 359.76 49.1733 356.613 50.72C353.52 52.2667 351.146 54.48 349.493 57.36C347.84 60.24 347.013 63.6533 347.013 67.6C347.013 71.4933 347.866 74.88 349.573 77.76C351.28 80.64 353.68 82.88 356.773 84.48C359.92 86.0267 363.626 86.8 367.893 86.8Z" fill="white" fill-opacity="0.5"/>
<path d="M173 32.5C241.5 80.5 299 86.5 384 52.5" stroke="#FF6969" stroke-width="5"/>
</svg>
