<svg width="154" height="172" viewBox="0 0 154 172" fill="none" xmlns="http://www.w3.org/2000/svg">
<g opacity="0.3">
<line y1="-0.5" x2="67.6309" y2="-0.5" transform="matrix(0.480957 0.876744 -0.854599 0.519288 119.878 20.1722)" stroke="#FF0000"/>
<line y1="-0.5" x2="124.425" y2="-0.5" transform="matrix(0.480957 0.876744 -0.854599 0.519288 85.9604 5.36536)" stroke="#FF0000"/>
<line y1="-0.5" x2="124.425" y2="-0.5" transform="matrix(0.480957 0.876744 -0.854599 0.519288 4.74756 53.8998)" stroke="#FF0000"/>
<line y1="-0.5" x2="169.117" y2="-0.5" transform="matrix(0.480957 0.876744 -0.854599 0.519288 57.251 1)" stroke="#FF0000"/>
<line y1="-0.5" x2="179.68" y2="-0.5" transform="matrix(0.480957 0.876744 -0.854599 0.519288 33.3467 5.1134)" stroke="#FF0000"/>
<line y1="-0.5" x2="166.362" y2="-0.5" transform="matrix(0.480957 0.876744 -0.854599 0.519288 16.3716 25.3171)" stroke="#FF0000"/>
<line y1="-0.5" x2="68.212" y2="-0.5" transform="matrix(0.480957 0.876744 -0.854599 0.519288 0 91.3752)" stroke="#FF0000"/>
</g>
</svg>
