<svg width="30" height="26" viewBox="0 0 30 26" fill="none" xmlns="http://www.w3.org/2000/svg">
<path d="M30 3.69995C28.8725 4.18909 27.6801 4.51244 26.46 4.65995C27.7473 3.89093 28.7119 2.68112 29.175 1.25495C27.9653 1.97504 26.6411 2.48239 25.26 2.75495C24.3368 1.75381 23.1075 1.08739 21.7647 0.860225C20.422 0.633058 19.0418 0.857986 17.8407 1.49973C16.6396 2.14148 15.6854 3.16374 15.1279 4.4062C14.5703 5.64866 14.4409 7.04103 14.76 8.36495C12.3141 8.24124 9.92166 7.60438 7.73798 6.49574C5.5543 5.3871 3.62827 3.83149 2.085 1.92995C1.54371 2.8752 1.25928 3.94568 1.26 5.03495C1.25808 6.04652 1.50633 7.04287 1.98263 7.9353C2.45894 8.82772 3.14853 9.58851 3.99 10.1499C3.01197 10.1233 2.05483 9.8609 1.2 9.38495V9.45995C1.20733 10.8773 1.70399 12.2486 2.60597 13.3419C3.50795 14.4352 4.75988 15.1834 6.15 15.4599C5.61488 15.6228 5.05931 15.7087 4.5 15.7149C4.11284 15.7104 3.72663 15.6753 3.345 15.6099C3.74086 16.8292 4.50693 17.8947 5.53661 18.6582C6.56629 19.4217 7.80836 19.8453 9.09 19.8699C6.9258 21.5728 4.25383 22.5022 1.5 22.5099C0.998603 22.5116 0.497603 22.4815 0 22.4199C2.81164 24.2353 6.08822 25.199 9.435 25.1949C11.7445 25.2189 14.0357 24.7825 16.1747 23.9111C18.3136 23.0397 20.2575 21.7508 21.8928 20.1197C23.5281 18.4886 24.8219 16.548 25.6988 14.4113C26.5757 12.2746 27.0181 9.98454 27 7.67495C27 7.41995 27 7.14995 27 6.87995C28.177 6.00216 29.1922 4.92609 30 3.69995Z" fill="white"/>
</svg>
